HIERARCHY
ROOT Hips
{
	OFFSET 0.000000 0.000000 0.000000
	CHANNELS 6 Xposition Yposition Zposition Zrotation Yrotation Xrotation 
	JOINT LHipJoint
	{
		OFFSET 0.000000 0.000000 0.000000
		CHANNELS 3 Zrotation Yrotation Xrotation
		JOINT LeftUpLeg
		{
			OFFSET 1.363060 -1.794630 0.839290
			CHANNELS 3 Zrotation Yrotation Xrotation
			JOINT LeftLeg
			{
				OFFSET 2.448110 -6.726130 0.000000
				CHANNELS 3 Zrotation Yrotation Xrotation
				JOINT LeftFoot
				{
					OFFSET 2.562200 -7.039590 0.000000
					CHANNELS 3 Zrotation Yrotation Xrotation
					JOINT LeftToeBase
					{
						OFFSET 0.157640 -0.433110 2.322550
						CHANNELS 3 Zrotation Yrotation Xrotation
						End Site
						{
							OFFSET 0.000000 0.000000 0.000000
						}
					}
				}
			}
		}
	}
	JOINT RHipJoint
	{
		OFFSET 0.000000 0.000000 0.000000
		CHANNELS 3 Zrotation Yrotation Xrotation
		JOINT RightUpLeg
		{
			OFFSET -1.305520 -1.794630 0.839290
			CHANNELS 3 Zrotation Yrotation Xrotation
			JOINT RightLeg
			{
				OFFSET -2.542530 -6.985550 0.000000
				CHANNELS 3 Zrotation Yrotation Xrotation
				JOINT RightFoot
				{
					OFFSET -2.568260 -7.056230 0.000000
					CHANNELS 3 Zrotation Yrotation Xrotation
					JOINT RightToeBase
					{
						OFFSET -0.164730 -0.452590 2.363150
						CHANNELS 3 Zrotation Yrotation Xrotation
						End Site
						{
							OFFSET 0.000000 0.000000 0.000000
						}
					}
				}
			}
		}
	}
}
MOTION
Frames: 11
Frame Time: 0.008333
2.846499 17.340489 -1.635983 151.470210 -82.334285 -142.357918 -10.958349 0.265214 2.354089 -3.447517 -4.856596 -30.292135 0.778986 1.763191 44.784276 4.116021 27.716838 12.424154 9.868100 -0.000000 -50.984900 8.586818 -1.193286 2.258676 8.579625 5.509485 -11.084106 1.805993 0.404789 9.789888 -2.053325 -8.671369 -7.549946 -0.598000 -0.000000 -46.827701
2.873898 17.346592 -1.662814 148.625935 -82.264903 -139.852249 -10.917900 0.089309 2.319646 -3.771174 -5.573997 -31.663859 0.893968 1.897208 47.798981 4.063659 27.370245 14.671928 10.573899 0.000000 -50.449900 8.717494 -1.154038 2.075356 8.209005 5.087935 -10.835815 1.760842 0.332897 10.001353 -2.009950 -8.456970 -7.560151 -0.572400 -0.000000 -47.064800
2.903226 17.353123 -1.688087 145.738078 -82.184559 -137.329209 -10.868040 -0.095353 2.256241 -4.162549 -6.193923 -33.109890 0.999474 2.034440 50.900429 3.994086 26.776864 16.916523 11.107699 -0.000000 -49.720900 8.864956 -1.108646 1.883274 7.805788 4.641108 -10.550037 1.712074 0.260406 10.189419 -1.964946 -8.242237 -7.549838 -0.550500 -0.000000 -47.333200
2.934413 17.360047 -1.711832 142.860811 -82.087107 -134.836754 -10.808562 -0.287563 2.164973 -4.618625 -6.717771 -34.632037 1.097802 2.177023 54.074212 3.915027 25.980263 19.093029 11.451500 -0.000000 -49.057200 9.026849 -1.056552 1.686753 7.372737 4.184825 -10.232037 1.659454 0.188638 10.351708 -1.919928 -8.034680 -7.518012 -0.533000 0.000001 -47.620501
2.967300 17.367219 -1.734065 140.093421 -81.968659 -132.467047 -10.742119 -0.485110 2.043744 -5.131276 -7.128379 -36.248017 1.193117 2.330873 57.332256 3.829169 25.001702 21.079104 11.568000 0.000000 -48.023300 9.197733 -0.998296 1.491972 6.921093 3.741225 -9.891215 1.603610 0.119001 10.491253 -1.877270 -7.844139 -7.468667 -0.519800 0.000000 -47.920200
3.001644 17.374568 -1.754944 137.450297 -81.828837 -130.227089 -10.669149 -0.688602 1.897171 -5.692809 -7.445748 -37.955767 1.291022 2.496441 60.653472 3.744946 23.931764 22.867513 11.511000 -0.000001 -47.202500 9.374558 -0.934321 1.301609 6.453731 3.321274 -9.531425 1.544103 0.052418 10.605010 -1.838836 -7.679705 -7.400693 -0.511701 -0.000000 -48.215300
3.037352 17.381949 -1.774532 134.974693 -81.669777 -128.155651 -10.591890 -0.898392 1.726188 -6.291029 -7.672144 -39.765226 1.397884 2.676662 64.038293 3.665275 22.827529 24.407521 11.309300 -0.000000 -46.495700 9.552464 -0.865620 1.118830 5.980752 2.939290 -9.159381 1.481370 -0.010625 10.696930 -1.806816 -7.550705 -7.318626 -0.508600 0.000000 -48.497400
3.074226 17.389236 -1.793017 132.671625 -81.494692 -126.252888 -10.510610 -1.116435 1.534391 -6.914136 -7.824941 -41.676005 1.518973 2.870869 67.468682 3.594968 21.766943 25.718417 11.029900 0.000000 -46.145099 9.728615 -0.792934 0.944382 5.507730 2.601989 -8.779857 1.415514 -0.070320 10.772087 -1.782667 -7.463203 -7.226545 -0.510200 -0.000000 -48.760999
3.112210 17.396271 -1.810533 130.534609 -81.308293 -124.511108 -10.425320 -1.344488 1.324278 -7.549543 -7.918835 -43.688294 1.659096 3.078653 70.930197 3.535736 20.800668 26.806795 10.719400 -0.000001 -46.210900 9.900657 -0.716808 0.778074 5.041138 2.314335 -8.396282 1.346734 -0.127250 10.837199 -1.767820 -7.423193 -7.129468 -0.516300 0.000000 -49.003000
3.151220 17.402915 -1.827311 128.541586 -81.114642 -122.907506 -10.334407 -1.584400 1.099023 -8.185672 -7.972502 -45.797531 1.821247 3.297860 74.396987 3.488605 19.966307 27.702839 10.421500 -0.000000 -46.635600 10.068011 -0.637273 0.618057 4.583976 2.075769 -8.011184 1.275079 -0.182526 10.901725 -1.763043 -7.433291 -7.032927 -0.526000 -0.000000 -49.223000
3.191244 17.408971 -1.843655 126.651856 -80.916794 -121.403274 -10.234880 -1.837462 0.861968 -8.812985 -8.007174 -47.996179 2.007028 3.525677 77.839082 3.453260 19.282342 28.434493 10.164301 0.000000 -47.356100 10.231912 -0.553597 0.460885 4.135673 1.879826 -7.625729 1.200486 -0.237632 10.976650 -1.768290 -7.491955 -6.942761 -0.538600 0.000000 -49.418500
